{
  "asset": {
    "version": "2.0",
    "generator": "RPS-BR Astrodynamics glTF Generator"
  },
  "scene": 0,
  "scenes": [
    {
      "nodes": [
        0
      ]
    }
  ],
  "nodes": [
    {
      "mesh": 0,
      "name": "OrbitRingNode"
    }
  ],
  "meshes": [
    {
      "name": "OrbitRingMesh",
      "primitives": [
        {
          "attributes": {
            "POSITION": 0
          },
          "indices": 1,
          "material": 0
        }
      ]
    }
  ],
  "materials": [
    {
      "name": "OrbitPbrMaterial",
      "pbrMetallicRoughness": {
        "baseColorFactor": [
          1.0,
          0.75,
          0.1,
          1.0
        ],
        "metallicFactor": 0.0,
        "roughnessFactor": 0.8
      },
      "emissiveFactor": [
        0.9,
        0.675,
        0.09000000000000001
      ],
      "alphaMode": "OPAQUE",
      "doubleSided": true
    }
  ],
  "accessors": [
    {
      "bufferView": 0,
      "byteOffset": 0,
      "componentType": 5126,
      "count": 2880,
      "type": "VEC3",
      "max": [
        1200.099999048072,
        1200.099999048072,
        0.10000000000000003
      ],
      "min": [
        -1200.099999048072,
        -1200.099999048072,
        -0.10000000000000003
      ]
    },
    {
      "bufferView": 1,
      "byteOffset": 0,
      "componentType": 5125,
      "count": 17280,
      "type": "SCALAR",
      "max": [
        2879
      ],
      "min": [
        0
      ]
    }
  ],
  "bufferViews": [
    {
      "buffer": 0,
      "byteOffset": 0,
      "byteLength": 34560,
      "target": 34962
    },
    {
      "buffer": 0,
      "byteOffset": 34560,
      "byteLength": 69120,
      "target": 34963
    }
  ],
  "buffers": [
    {
      "byteLength": 103680,
      "uri": "data:application/octet-stream;base64,"
    }
  ]
}