{
  "asset": {
    "version": "2.0",
    "generator": "RPS-BR Astrodynamics glTF Generator"
  },
  "scene": 0,
  "scenes": [
    {
      "nodes": [
        0
      ]
    }
  ],
  "nodes": [
    {
      "mesh": 0,
      "name": "CelestialOrbitRingNode"
    }
  ],
  "meshes": [
    {
      "name": "CelestialOrbitRingMesh",
      "primitives": [
        {
          "attributes": {
            "POSITION": 0,
            "NORMAL": 1
          },
          "indices": 2,
          "material": 0
        }
      ]
    }
  ],
  "buffers": [
    {
      "byteLength": 92160,
      "uri": "data:application/octet-stream;base64,"
    }
  ],
  "bufferViews": [
    {
      "buffer": 0,
      "byteOffset": 0,
      "byteLength": 23040,
      "target": 34962
    },
    {
      "buffer": 0,
      "byteOffset": 23040,
      "byteLength": 23040,
      "target": 34962
    },
    {
      "buffer": 0,
      "byteOffset": 46080,
      "byteLength": 46080,
      "target": 34963
    }
  ],
  "accessors": [
    {
      "bufferView": 0,
      "byteOffset": 0,
      "componentType": 5126,
      "count": 1920,
      "type": "VEC3",
      "min": [
        -384.42999267578125,
        -382.8812255859375,
        -34.501670837402344
      ],
      "max": [
        384.42999267578125,
        382.8812255859375,
        34.501670837402344
      ]
    },
    {
      "bufferView": 1,
      "byteOffset": 0,
      "componentType": 5126,
      "count": 1920,
      "type": "VEC3",
      "min": [
        -1.0,
        -1.0,
        -1.0
      ],
      "max": [
        1.0,
        1.0,
        1.0
      ]
    },
    {
      "bufferView": 2,
      "byteOffset": 0,
      "componentType": 5125,
      "count": 11520,
      "type": "SCALAR",
      "min": [
        0
      ],
      "max": [
        1919
      ]
    }
  ],
  "materials": [
    {
      "name": "OrbitPbrMaterial",
      "pbrMetallicRoughness": {
        "baseColorFactor": [
          0.0,
          0.85,
          1.0,
          1.0
        ],
        "metallicFactor": 0.0,
        "roughnessFactor": 0.8
      },
      "emissiveFactor": [
        0.0,
        0.765,
        0.9
      ],
      "alphaMode": "OPAQUE",
      "doubleSided": true
    }
  ]
}