{
  "asset": {
    "version": "2.0",
    "generator": "RPS-BR Orbital Trajectory Generator"
  },
  "scene": 0,
  "scenes": [
    {
      "nodes": [
        0
      ]
    }
  ],
  "nodes": [
    {
      "mesh": 0,
      "name": "OrbitTrajectoryNode"
    }
  ],
  "meshes": [
    {
      "name": "OrbitTrajectoryMesh",
      "primitives": [
        {
          "attributes": {
            "POSITION": 0,
            "NORMAL": 1
          },
          "indices": 2,
          "material": 0
        }
      ]
    }
  ],
  "buffers": [
    {
      "byteLength": 69120,
      "uri": "data:application/octet-stream;base64,"
    }
  ],
  "bufferViews": [
    {
      "buffer": 0,
      "byteOffset": 0,
      "byteLength": 17280,
      "target": 34962
    },
    {
      "buffer": 0,
      "byteOffset": 17280,
      "byteLength": 17280,
      "target": 34962
    },
    {
      "buffer": 0,
      "byteOffset": 34560,
      "byteLength": 34560,
      "target": 34963
    }
  ],
  "accessors": [
    {
      "bufferView": 0,
      "byteOffset": 0,
      "componentType": 5126,
      "count": 1440,
      "type": "VEC3",
      "min": [
        -42.26413345336914,
        -42.26413345336914,
        -0.10000000894069672
      ],
      "max": [
        42.26413345336914,
        42.26413345336914,
        0.10000000894069672
      ]
    },
    {
      "bufferView": 1,
      "byteOffset": 0,
      "componentType": 5126,
      "count": 1440,
      "type": "VEC3",
      "min": [
        -1.0,
        -1.0,
        -1.0
      ],
      "max": [
        1.0,
        1.0,
        1.0
      ]
    },
    {
      "bufferView": 2,
      "byteOffset": 0,
      "componentType": 5125,
      "count": 8640,
      "type": "SCALAR",
      "min": [
        0
      ],
      "max": [
        1439
      ]
    }
  ],
  "materials": [
    {
      "name": "OrbitGlowMaterial",
      "pbrMetallicRoughness": {
        "baseColorFactor": [
          0.0,
          0.9,
          1.0,
          1.0
        ],
        "metallicFactor": 0.0,
        "roughnessFactor": 0.1
      },
      "emissiveFactor": [
        0.0,
        0.855,
        0.95
      ],
      "alphaMode": "OPAQUE",
      "doubleSided": true
    }
  ]
}