{
  "asset": {
    "version": "2.0",
    "generator": "RPS-BR Orbital Trajectory Generator"
  },
  "scene": 0,
  "scenes": [
    {
      "nodes": [
        0
      ]
    }
  ],
  "nodes": [
    {
      "mesh": 0,
      "name": "OrbitTrajectoryNode"
    }
  ],
  "meshes": [
    {
      "name": "OrbitTrajectoryMesh",
      "primitives": [
        {
          "attributes": {
            "POSITION": 0,
            "NORMAL": 1
          },
          "indices": 2,
          "material": 0
        }
      ]
    }
  ],
  "buffers": [
    {
      "byteLength": 69120,
      "uri": "data:application/octet-stream;base64,"
    }
  ],
  "bufferViews": [
    {
      "buffer": 0,
      "byteOffset": 0,
      "byteLength": 17280,
      "target": 34962
    },
    {
      "buffer": 0,
      "byteOffset": 17280,
      "byteLength": 17280,
      "target": 34962
    },
    {
      "buffer": 0,
      "byteOffset": 34560,
      "byteLength": 34560,
      "target": 34963
    }
  ],
  "accessors": [
    {
      "bufferView": 0,
      "byteOffset": 0,
      "componentType": 5126,
      "count": 1440,
      "type": "VEC3",
      "min": [
        -2.8070411682128906,
        -44.81038284301758,
        -18.65210723876953
      ],
      "max": [
        26.71494483947754,
        -16.540874481201172,
        17.226558685302734
      ]
    },
    {
      "bufferView": 1,
      "byteOffset": 0,
      "componentType": 5126,
      "count": 1440,
      "type": "VEC3",
      "min": [
        -1.0,
        -1.0,
        -1.0
      ],
      "max": [
        1.0,
        1.0,
        1.0
      ]
    },
    {
      "bufferView": 2,
      "byteOffset": 0,
      "componentType": 5125,
      "count": 8640,
      "type": "SCALAR",
      "min": [
        0
      ],
      "max": [
        1439
      ]
    }
  ],
  "materials": [
    {
      "name": "OrbitGlowMaterial",
      "pbrMetallicRoughness": {
        "baseColorFactor": [
          1.0,
          0.8,
          0.1,
          1.0
        ],
        "metallicFactor": 0.0,
        "roughnessFactor": 0.1
      },
      "emissiveFactor": [
        0.95,
        0.76,
        0.095
      ],
      "alphaMode": "OPAQUE",
      "doubleSided": true
    }
  ]
}